<svg height="1966" width="720" xmlns="http://www.w3.org/2000/svg">
<rect height="1966" fill="#555" width="720"></rect>
<text fill="#7f7" font-family="Courier New" font-size="12" xml:space="preserve">
<tspan x="10" y="26">6 megabytes installed</tspan>
<tspan x="10" y="42"></tspan>
<tspan x="10" y="58">node_modules</tspan>
<tspan x="10" y="74">└─┬ live-server@1.2.0 </tspan>
<tspan x="10" y="90">  ├─┬ chokidar@1.6.1 </tspan>
<tspan x="10" y="106">  │ ├─┬ anymatch@1.3.0 </tspan>
<tspan x="10" y="122">  │ │ ├── arrify@1.0.1 </tspan>
<tspan x="10" y="138">  │ │ └─┬ micromatch@2.3.11 </tspan>
<tspan x="10" y="154">  │ │   ├─┬ arr-diff@2.0.0 </tspan>
<tspan x="10" y="170">  │ │   │ └── arr-flatten@1.0.3 </tspan>
<tspan x="10" y="186">  │ │   ├── array-unique@0.2.1 </tspan>
<tspan x="10" y="202">  │ │   ├─┬ braces@1.8.5 </tspan>
<tspan x="10" y="218">  │ │   │ ├─┬ expand-range@1.8.2 </tspan>
<tspan x="10" y="234">  │ │   │ │ └─┬ fill-range@2.2.3 </tspan>
<tspan x="10" y="250">  │ │   │ │   ├── is-number@2.1.0 </tspan>
<tspan x="10" y="266">  │ │   │ │   ├── isobject@2.1.0 </tspan>
<tspan x="10" y="282">  │ │   │ │   ├── randomatic@1.1.6 </tspan>
<tspan x="10" y="298">  │ │   │ │   └── repeat-string@1.6.1 </tspan>
<tspan x="10" y="314">  │ │   │ ├── preserve@0.2.0 </tspan>
<tspan x="10" y="330">  │ │   │ └── repeat-element@1.1.2 </tspan>
<tspan x="10" y="346">  │ │   ├─┬ expand-brackets@0.1.5 </tspan>
<tspan x="10" y="362">  │ │   │ └── is-posix-bracket@0.1.1 </tspan>
<tspan x="10" y="378">  │ │   ├── extglob@0.3.2 </tspan>
<tspan x="10" y="394">  │ │   ├── filename-regex@2.0.0 </tspan>
<tspan x="10" y="410">  │ │   ├─┬ kind-of@3.1.0 </tspan>
<tspan x="10" y="426">  │ │   │ └── is-buffer@1.1.5 </tspan>
<tspan x="10" y="442">  │ │   ├─┬ normalize-path@2.1.1 </tspan>
<tspan x="10" y="458">  │ │   │ └── remove-trailing-separator@1.0.1 </tspan>
<tspan x="10" y="474">  │ │   ├─┬ object.omit@2.0.1 </tspan>
<tspan x="10" y="490">  │ │   │ ├─┬ for-own@0.1.5 </tspan>
<tspan x="10" y="506">  │ │   │ │ └── for-in@1.0.2 </tspan>
<tspan x="10" y="522">  │ │   │ └── is-extendable@0.1.1 </tspan>
<tspan x="10" y="538">  │ │   ├─┬ parse-glob@3.0.4 </tspan>
<tspan x="10" y="554">  │ │   │ ├── glob-base@0.3.0 </tspan>
<tspan x="10" y="570">  │ │   │ └── is-dotfile@1.0.2 </tspan>
<tspan x="10" y="586">  │ │   └─┬ regex-cache@0.4.3 </tspan>
<tspan x="10" y="602">  │ │     ├── is-equal-shallow@0.1.3 </tspan>
<tspan x="10" y="618">  │ │     └── is-primitive@2.0.0 </tspan>
<tspan x="10" y="634">  │ ├── async-each@1.0.1 </tspan>
<tspan x="10" y="650">  │ ├── glob-parent@2.0.0 </tspan>
<tspan x="10" y="666">  │ ├── inherits@2.0.3 </tspan>
<tspan x="10" y="682">  │ ├─┬ is-binary-path@1.0.1 </tspan>
<tspan x="10" y="698">  │ │ └── binary-extensions@1.8.0 </tspan>
<tspan x="10" y="714">  │ ├─┬ is-glob@2.0.1 </tspan>
<tspan x="10" y="730">  │ │ └── is-extglob@1.0.0 </tspan>
<tspan x="10" y="746">  │ ├── path-is-absolute@1.0.1 </tspan>
<tspan x="10" y="762">  │ └─┬ readdirp@2.1.0 </tspan>
<tspan x="10" y="778">  │   ├── graceful-fs@4.1.11 </tspan>
<tspan x="10" y="794">  │   ├─┬ minimatch@3.0.3 </tspan>
<tspan x="10" y="810">  │   │ └─┬ brace-expansion@1.1.7 </tspan>
<tspan x="10" y="826">  │   │   ├── balanced-match@0.4.2 </tspan>
<tspan x="10" y="842">  │   │   └── concat-map@0.0.1 </tspan>
<tspan x="10" y="858">  │   ├─┬ readable-stream@2.2.9 </tspan>
<tspan x="10" y="874">  │   │ ├── buffer-shims@1.0.0 </tspan>
<tspan x="10" y="890">  │   │ ├── core-util-is@1.0.2 </tspan>
<tspan x="10" y="906">  │   │ ├── isarray@1.0.0 </tspan>
<tspan x="10" y="922">  │   │ ├── process-nextick-args@1.0.7 </tspan>
<tspan x="10" y="938">  │   │ ├── string_decoder@1.0.0 </tspan>
<tspan x="10" y="954">  │   │ └── util-deprecate@1.0.2 </tspan>
<tspan x="10" y="970">  │   └── set-immediate-shim@1.0.1 </tspan>
<tspan x="10" y="986">  ├── colors@1.1.2 </tspan>
<tspan x="10" y="1002">  ├─┬ connect@3.5.1 </tspan>
<tspan x="10" y="1018">  │ ├─┬ debug@2.2.0 </tspan>
<tspan x="10" y="1034">  │ │ └── ms@0.7.1 </tspan>
<tspan x="10" y="1050">  │ ├─┬ finalhandler@0.5.1 </tspan>
<tspan x="10" y="1066">  │ │ └── unpipe@1.0.0 </tspan>
<tspan x="10" y="1082">  │ ├── parseurl@1.3.1 </tspan>
<tspan x="10" y="1098">  │ └── utils-merge@1.0.0 </tspan>
<tspan x="10" y="1114">  ├─┬ cors@2.8.3 </tspan>
<tspan x="10" y="1130">  │ └── vary@1.1.1 </tspan>
<tspan x="10" y="1146">  ├─┬ event-stream@3.3.4 </tspan>
<tspan x="10" y="1162">  │ ├── duplexer@0.1.1 </tspan>
<tspan x="10" y="1178">  │ ├── from@0.1.7 </tspan>
<tspan x="10" y="1194">  │ ├── map-stream@0.1.0 </tspan>
<tspan x="10" y="1210">  │ ├── pause-stream@0.0.11 </tspan>
<tspan x="10" y="1226">  │ ├── split@0.3.3 </tspan>
<tspan x="10" y="1242">  │ ├── stream-combiner@0.0.4 </tspan>
<tspan x="10" y="1258">  │ └── through@2.3.8 </tspan>
<tspan x="10" y="1274">  ├─┬ faye-websocket@0.11.1 </tspan>
<tspan x="10" y="1290">  │ └─┬ websocket-driver@0.6.5 </tspan>
<tspan x="10" y="1306">  │   └── websocket-extensions@0.1.1 </tspan>
<tspan x="10" y="1322">  ├─┬ http-auth@3.1.3 </tspan>
<tspan x="10" y="1338">  │ ├─┬ apache-crypt@1.2.1 </tspan>
<tspan x="10" y="1354">  │ │ └── unix-crypt-td-js@1.0.0 </tspan>
<tspan x="10" y="1370">  │ ├── apache-md5@1.1.2 </tspan>
<tspan x="10" y="1386">  │ ├── bcryptjs@2.4.3 </tspan>
<tspan x="10" y="1402">  │ └── uuid@3.0.1 </tspan>
<tspan x="10" y="1418">  ├─┬ morgan@1.8.1 </tspan>
<tspan x="10" y="1434">  │ ├── basic-auth@1.1.0 </tspan>
<tspan x="10" y="1450">  │ ├─┬ debug@2.6.1 </tspan>
<tspan x="10" y="1466">  │ │ └── ms@0.7.2 </tspan>
<tspan x="10" y="1482">  │ ├── depd@1.1.0 </tspan>
<tspan x="10" y="1498">  │ ├─┬ on-finished@2.3.0 </tspan>
<tspan x="10" y="1514">  │ │ └── ee-first@1.1.1 </tspan>
<tspan x="10" y="1530">  │ └── on-headers@1.0.1 </tspan>
<tspan x="10" y="1546">  ├── object-assign@4.1.1 </tspan>
<tspan x="10" y="1562">  ├─┬ opn@4.0.2 </tspan>
<tspan x="10" y="1578">  │ └─┬ pinkie-promise@2.0.1 </tspan>
<tspan x="10" y="1594">  │   └── pinkie@2.0.4 </tspan>
<tspan x="10" y="1610">  ├── proxy-middleware@0.15.0 </tspan>
<tspan x="10" y="1626">  ├─┬ send@0.15.1 </tspan>
<tspan x="10" y="1642">  │ ├── debug@2.6.1 </tspan>
<tspan x="10" y="1658">  │ ├── destroy@1.0.4 </tspan>
<tspan x="10" y="1674">  │ ├── encodeurl@1.0.1 </tspan>
<tspan x="10" y="1690">  │ ├── escape-html@1.0.3 </tspan>
<tspan x="10" y="1706">  │ ├── etag@1.8.0 </tspan>
<tspan x="10" y="1722">  │ ├── fresh@0.5.0 </tspan>
<tspan x="10" y="1738">  │ ├─┬ http-errors@1.6.1 </tspan>
<tspan x="10" y="1754">  │ │ └── setprototypeof@1.0.3 </tspan>
<tspan x="10" y="1770">  │ ├── mime@1.3.4 </tspan>
<tspan x="10" y="1786">  │ ├── ms@0.7.2 </tspan>
<tspan x="10" y="1802">  │ ├── range-parser@1.2.0 </tspan>
<tspan x="10" y="1818">  │ └── statuses@1.3.1 </tspan>
<tspan x="10" y="1834">  └─┬ serve-index@1.8.0 </tspan>
<tspan x="10" y="1850">    ├─┬ accepts@1.3.3 </tspan>
<tspan x="10" y="1866">    │ └── negotiator@0.6.1 </tspan>
<tspan x="10" y="1882">    ├── batch@0.5.3 </tspan>
<tspan x="10" y="1898">    ├─┬ http-errors@1.5.1 </tspan>
<tspan x="10" y="1914">    │ └── setprototypeof@1.0.2 </tspan>
<tspan x="10" y="1930">    └─┬ mime-types@2.1.15 </tspan>
<tspan x="10" y="1946">      └── mime-db@1.27.0</tspan>
</text>
</svg>
